<svg width="18" height="18" viewBox="0 0 18 18" fill="none" xmlns="http://www.w3.org/2000/svg">
<path d="M5 15.25C6.24264 15.25 7.25 14.2426 7.25 13C7.25 11.7574 6.24264 10.75 5 10.75C3.75736 10.75 2.75 11.7574 2.75 13C2.75 14.2426 3.75736 15.25 5 15.25Z" stroke="#A0A2A0" stroke-width="1.5" stroke-linecap="round" stroke-linejoin="round"/>
<path d="M13 7.25C14.2426 7.25 15.25 6.24264 15.25 5C15.25 3.75736 14.2426 2.75 13 2.75C11.7574 2.75 10.75 3.75736 10.75 5C10.75 6.24264 11.7574 7.25 13 7.25Z" stroke="#A0A2A0" stroke-width="1.5" stroke-linecap="round" stroke-linejoin="round"/>
<path d="M13 15.25C14.2426 15.25 15.25 14.2426 15.25 13C15.25 11.7574 14.2426 10.75 13 10.75C11.7574 10.75 10.75 11.7574 10.75 13C10.75 14.2426 11.7574 15.25 13 15.25Z" stroke="#A0A2A0" stroke-width="1.5" stroke-linecap="round" stroke-linejoin="round"/>
<path d="M5 7.25C6.24264 7.25 7.25 6.24264 7.25 5C7.25 3.75736 6.24264 2.75 5 2.75C3.75736 2.75 2.75 3.75736 2.75 5C2.75 6.24264 3.75736 7.25 5 7.25Z" stroke="#A0A2A0" stroke-width="1.5" stroke-linecap="round" stroke-linejoin="round"/>
<path d="M6.5907 11.4093L11.4095 6.59052" stroke="#A0A2A0" stroke-width="1.5" stroke-linecap="round" stroke-linejoin="round"/>
</svg>
