<svg width="18" height="18" viewBox="0 0 18 18" fill="none" xmlns="http://www.w3.org/2000/svg">
<path d="M2.83997 8.68892C3.08597 7.25192 3.82197 5.98192 4.87097 5.05792" stroke="#A0A2A0" stroke-width="1.5" stroke-linecap="round" stroke-linejoin="round"/>
<path d="M15.1599 8.68892C14.9139 7.25192 14.1779 5.98192 13.1289 5.05792" stroke="#A0A2A0" stroke-width="1.5" stroke-linecap="round" stroke-linejoin="round"/>
<path d="M11 15.6729C10.372 15.8849 9.699 15.9999 9 15.9999C8.301 15.9999 7.628 15.8849 7 15.6729" stroke="#A0A2A0" stroke-width="1.5" stroke-linecap="round" stroke-linejoin="round"/>
<path d="M9 5.74994C10.1046 5.74994 11 4.85451 11 3.74994C11 2.64537 10.1046 1.74994 9 1.74994C7.89543 1.74994 7 2.64537 7 3.74994C7 4.85451 7.89543 5.74994 9 5.74994Z" stroke="#A0A2A0" stroke-width="1.5" stroke-linecap="round" stroke-linejoin="round"/>
<path d="M3.80395 14.7499C4.90852 14.7499 5.80396 13.8545 5.80396 12.7499C5.80396 11.6454 4.90852 10.7499 3.80395 10.7499C2.69939 10.7499 1.80396 11.6454 1.80396 12.7499C1.80396 13.8545 2.69939 14.7499 3.80395 14.7499Z" stroke="#A0A2A0" stroke-width="1.5" stroke-linecap="round" stroke-linejoin="round"/>
<path d="M14.1959 14.7499C15.3005 14.7499 16.1959 13.8545 16.1959 12.7499C16.1959 11.6454 15.3005 10.7499 14.1959 10.7499C13.0914 10.7499 12.1959 11.6454 12.1959 12.7499C12.1959 13.8545 13.0914 14.7499 14.1959 14.7499Z" stroke="#A0A2A0" stroke-width="1.5" stroke-linecap="round" stroke-linejoin="round"/>
</svg>
