<svg width="18" height="18" viewBox="0 0 18 18" fill="none" xmlns="http://www.w3.org/2000/svg">
<path d="M9.25 14.75H6.75V16.25H9.25V14.75Z" fill="#A0A2A0" stroke="#A0A2A0" stroke-width="1.5" stroke-linecap="round" stroke-linejoin="round"/>
<path d="M15.452 5.52C15.228 4.369 14.217 3.5 13 3.5C11.619 3.5 10.5 4.619 10.5 6C9.672 6 9 6.672 9 7.5C9 8.328 9.672 9 10.5 9H15.25C16.216 9 17 8.217 17 7.25C17 6.353 16.322 5.622 15.452 5.52Z" fill="#A0A2A0"/>
<path d="M10.749 2.411C9.936 1.983 8.99 1.75 8 1.75C5.218 1.75 2.75 3.562 2.75 6.523C2.75 9.484 5.9 12.25 5.9 12.25H10.1C10.1 12.25 10.76 11.664 11.475 10.75" stroke="#A0A2A0" stroke-width="1.5" stroke-linecap="round" stroke-linejoin="round"/>
</svg>
