<svg width="18" height="18" viewBox="0 0 18 18" fill="none" xmlns="http://www.w3.org/2000/svg">
<path d="M9 10.749C9.9665 10.749 10.75 9.96552 10.75 8.99902C10.75 8.03252 9.9665 7.24902 9 7.24902C8.0335 7.24902 7.25 8.03252 7.25 8.99902C7.25 9.96552 8.0335 10.749 9 10.749Z" fill="#A0A2A0" stroke="#A0A2A0" stroke-width="1.5" stroke-linecap="round" stroke-linejoin="round"/>
<path d="M15.175 7.27806L14.246 6.95006C14.144 6.68906 14.027 6.43006 13.883 6.18006C13.739 5.93006 13.573 5.70006 13.398 5.48106L13.578 4.51306C13.703 3.84206 13.391 3.16406 12.8 2.82306L12.449 2.62006C11.857 2.27806 11.115 2.34706 10.596 2.79106L9.851 3.42806C9.291 3.34206 8.718 3.34206 8.148 3.42806L7.403 2.79006C6.884 2.34606 6.141 2.27706 5.55 2.61906L5.199 2.82206C4.607 3.16306 4.296 3.84106 4.421 4.51206L4.601 5.47706C4.241 5.92606 3.955 6.42306 3.749 6.95106L2.825 7.27706C2.181 7.50406 1.75 8.11306 1.75 8.79606V9.20106C1.75 9.88406 2.181 10.4931 2.825 10.7201L3.754 11.0481C3.856 11.3091 3.972 11.5671 4.117 11.8171C4.262 12.0671 4.427 12.2971 4.602 12.5171L4.421 13.4851C4.296 14.1561 4.608 14.8341 5.199 15.1751L5.55 15.3781C6.142 15.7201 6.884 15.6511 7.403 15.2071L8.148 14.5691C8.707 14.6551 9.28 14.6551 9.849 14.5691L10.595 15.2081C11.114 15.6521 11.857 15.7211 12.448 15.3791L12.799 15.1761C13.391 14.8341 13.702 14.1571 13.577 13.4861L13.397 12.5201C13.756 12.0711 14.043 11.5751 14.248 11.0471L15.173 10.7211C15.817 10.4941 16.248 9.88506 16.248 9.20206V8.79706C16.248 8.11406 15.817 7.50506 15.173 7.27806H15.175Z" stroke="#A0A2A0" stroke-width="1.5" stroke-linecap="round" stroke-linejoin="round"/>
</svg>
