<svg width="18" height="18" viewBox="0 0 18 18" fill="none" xmlns="http://www.w3.org/2000/svg">
<path d="M9 12.75C10.5188 12.75 11.75 11.5188 11.75 10C11.75 8.48122 10.5188 7.25 9 7.25C7.48122 7.25 6.25 8.48122 6.25 10C6.25 11.5188 7.48122 12.75 9 12.75Z" stroke="#A0A2A0" stroke-width="1.5" stroke-linecap="round" stroke-linejoin="round"/>
<path d="M11.09 12.09L15.25 16.25" stroke="#A0A2A0" stroke-width="1.5" stroke-linecap="round" stroke-linejoin="round"/>
<path d="M15.25 16.25V6.6644C15.25 6.3991 15.1446 6.1446 14.957 5.957L11.0427 2.0427C10.8553 1.8553 10.601 1.75 10.336 1.75H4.75C3.6454 1.75 2.75 2.6454 2.75 3.75V14.25C2.75 15.3546 3.6454 16.25 4.75 16.25H11.25" stroke="#A0A2A0" stroke-width="1.5" stroke-linecap="round" stroke-linejoin="round"/>
</svg>
