<svg width="18" height="18" viewBox="0 0 18 18" fill="none" xmlns="http://www.w3.org/2000/svg">
<path d="M6 12.155C3.579 11.688 1.75 9.558 1.75 7C1.75 4.101 4.101 1.75 7 1.75C8.917 1.75 10.595 2.778 11.511 4.313" stroke="#0D0F0D" stroke-width="1.5" stroke-linecap="round" stroke-linejoin="round"/>
<path d="M14.25 10.25H9.75C9.19772 10.25 8.75 10.6977 8.75 11.25V12.25C8.75 12.8023 9.19772 13.25 9.75 13.25H14.25C14.8023 13.25 15.25 12.8023 15.25 12.25V11.25C15.25 10.6977 14.8023 10.25 14.25 10.25Z" stroke="#0D0F0D" stroke-width="1.5" stroke-linecap="round" stroke-linejoin="round"/>
<path d="M15.25 7.25H10.75C10.1977 7.25 9.75 7.69772 9.75 8.25V9.25C9.75 9.80228 10.1977 10.25 10.75 10.25H15.25C15.8023 10.25 16.25 9.80228 16.25 9.25V8.25C16.25 7.69772 15.8023 7.25 15.25 7.25Z" stroke="#0D0F0D" stroke-width="1.5" stroke-linecap="round" stroke-linejoin="round"/>
<path d="M15.25 13.25H10.75C10.1977 13.25 9.75 13.6977 9.75 14.25V15.25C9.75 15.8023 10.1977 16.25 10.75 16.25H15.25C15.8023 16.25 16.25 15.8023 16.25 15.25V14.25C16.25 13.6977 15.8023 13.25 15.25 13.25Z" stroke="#0D0F0D" stroke-width="1.5" stroke-linecap="round" stroke-linejoin="round"/>
<path d="M7 4V7L4.5 8.5" stroke="#0D0F0D" stroke-width="1.5" stroke-linecap="round" stroke-linejoin="round"/>
</svg>
