<svg width="18" height="18" viewBox="0 0 18 18" fill="none" xmlns="http://www.w3.org/2000/svg">
<path d="M9 7.25C10.5188 7.25 11.75 6.01878 11.75 4.5C11.75 2.98122 10.5188 1.75 9 1.75C7.48122 1.75 6.25 2.98122 6.25 4.5C6.25 6.01878 7.48122 7.25 9 7.25Z" stroke="#A0A2A0" stroke-width="1.5" stroke-linecap="round" stroke-linejoin="round"/>
<path d="M14.25 10.25L11.75 12.75L14.25 15.25" stroke="#A0A2A0" stroke-width="1.5" stroke-linecap="round" stroke-linejoin="round"/>
<path d="M10.911 10.054C10.308 9.86 9.66799 9.75 8.99999 9.75C6.44899 9.75 4.26099 11.28 3.29099 13.47C2.92599 14.295 3.37799 15.244 4.23799 15.515C5.46299 15.901 7.08399 16.249 8.99999 16.249C9.90799 16.249 10.744 16.167 11.509 16.043" stroke="#A0A2A0" stroke-width="1.5" stroke-linecap="round" stroke-linejoin="round"/>
<path d="M11.75 12.75H16.75" stroke="#A0A2A0" stroke-width="1.5" stroke-linecap="round" stroke-linejoin="round"/>
</svg>
