<svg width="32" height="32" viewBox="0 0 32 32" fill="none" xmlns="http://www.w3.org/2000/svg">
<mask id="mask0_1_399" style="mask-type:luminance" maskUnits="userSpaceOnUse" x="5" y="0" width="23" height="32">
<path d="M27.12 0H5.12V32H27.12V0Z" fill="white"/>
</mask>
<g mask="url(#mask0_1_399)">
<path d="M15.9746 15.7916L10.6131 10.4471C10.5887 10.4228 10.5493 10.4228 10.525 10.4471L5.16339 15.7916C5.13906 15.8158 5.13906 15.8551 5.16339 15.8794L10.525 21.2238C10.5493 21.248 10.5887 21.248 10.6131 21.2238L15.9746 15.8794C15.999 15.8551 15.999 15.8158 15.9746 15.7916Z" fill="#0D0F0D"/>
<path d="M27.0765 26.522L21.7148 21.1776C21.6906 21.1533 21.6512 21.1533 21.6268 21.1776L16.2652 26.522C16.2409 26.5462 16.2409 26.5856 16.2652 26.6099L21.6268 31.9542C21.6512 31.9785 21.6906 31.9785 21.7148 31.9542L27.0765 26.6099C27.1008 26.5856 27.1008 26.5462 27.0765 26.522Z" fill="#0D0F0D"/>
<path d="M10.5713 22.4711H10.5697C8.11867 22.4711 6.13171 24.4516 6.13171 26.8949V26.8965C6.13171 29.3397 8.11867 31.3204 10.5697 31.3204H10.5713C13.0224 31.3204 15.0093 29.3397 15.0093 26.8965V26.8949C15.0093 24.4516 13.0224 22.4711 10.5713 22.4711Z" fill="#0D0F0D"/>
<path d="M10.5713 0H10.5697C8.11867 0 6.13171 1.9806 6.13171 4.4238V4.42544C6.13171 6.86863 8.11867 8.84922 10.5697 8.84922H10.5713C13.0224 8.84922 15.0093 6.86863 15.0093 4.42544V4.4238C15.0093 1.9806 13.0224 0 10.5713 0Z" fill="#0D0F0D"/>
<path d="M21.6688 11.0809H21.6671C19.216 11.0809 17.2291 13.0614 17.2291 15.5046V15.5062C17.2291 17.9495 19.216 19.9301 21.6671 19.9301H21.6688C24.1197 19.9301 26.1067 17.9495 26.1067 15.5062V15.5046C26.1067 13.0614 24.1197 11.0809 21.6688 11.0809Z" fill="#0D0F0D"/>
</g>
</svg>
