<svg width="737" height="248" viewBox="0 0 737 248" fill="none" xmlns="http://www.w3.org/2000/svg">
<g id="chart">
<path id="Jan 22" d="M67.3335 239H68.5366V244.672C68.5366 245.185 68.4351 245.624 68.2319 245.988C68.0314 246.353 67.7489 246.632 67.3843 246.824C67.0197 247.014 66.5926 247.109 66.103 247.109C65.6525 247.109 65.2476 247.027 64.8882 246.863C64.5314 246.699 64.2489 246.461 64.0405 246.148C63.8348 245.833 63.7319 245.451 63.7319 245H64.9312C64.9312 245.221 64.9819 245.413 65.0835 245.574C65.1877 245.736 65.3296 245.862 65.5093 245.953C65.6916 246.042 65.8999 246.086 66.1343 246.086C66.3895 246.086 66.6056 246.033 66.7827 245.926C66.9624 245.816 67.0991 245.656 67.1929 245.445C67.2866 245.234 67.3335 244.977 67.3335 244.672V239ZM71.9458 247.133C71.5656 247.133 71.2218 247.063 70.9146 246.922C70.6073 246.779 70.3638 246.572 70.1841 246.301C70.007 246.03 69.9185 245.698 69.9185 245.305C69.9185 244.966 69.9836 244.687 70.1138 244.469C70.244 244.25 70.4198 244.077 70.6411 243.949C70.8625 243.822 71.1099 243.725 71.3833 243.66C71.6567 243.595 71.9354 243.546 72.2192 243.512C72.5786 243.47 72.8703 243.436 73.0942 243.41C73.3182 243.382 73.481 243.336 73.5825 243.273C73.6841 243.211 73.7349 243.109 73.7349 242.969V242.941C73.7349 242.6 73.6385 242.336 73.4458 242.148C73.2557 241.961 72.9718 241.867 72.5942 241.867C72.201 241.867 71.8911 241.954 71.6646 242.129C71.4406 242.301 71.2856 242.492 71.1997 242.703L70.1021 242.453C70.2323 242.089 70.4224 241.794 70.6724 241.57C70.925 241.344 71.2153 241.18 71.5435 241.078C71.8716 240.974 72.2166 240.922 72.5786 240.922C72.8182 240.922 73.0721 240.951 73.3403 241.008C73.6112 241.062 73.8638 241.164 74.0981 241.312C74.3351 241.461 74.5291 241.673 74.6802 241.949C74.8312 242.223 74.9067 242.578 74.9067 243.016V247H73.7661V246.18H73.7192C73.6437 246.331 73.5304 246.479 73.3794 246.625C73.2284 246.771 73.0343 246.892 72.7974 246.988C72.5604 247.085 72.2765 247.133 71.9458 247.133ZM72.1997 246.195C72.5226 246.195 72.7987 246.132 73.0278 246.004C73.2596 245.876 73.4354 245.71 73.5552 245.504C73.6776 245.296 73.7388 245.073 73.7388 244.836V244.062C73.6971 244.104 73.6164 244.143 73.4966 244.18C73.3794 244.214 73.2453 244.243 73.0942 244.27C72.9432 244.293 72.7961 244.315 72.6528 244.336C72.5096 244.354 72.3898 244.37 72.2935 244.383C72.0669 244.411 71.8599 244.46 71.6724 244.527C71.4875 244.595 71.339 244.693 71.2271 244.82C71.1177 244.945 71.063 245.112 71.063 245.32C71.063 245.609 71.1698 245.828 71.3833 245.977C71.5968 246.122 71.869 246.195 72.1997 246.195ZM77.6304 243.437V247H76.4624V241H77.5835V241.977H77.6577C77.7957 241.659 78.0119 241.404 78.3062 241.211C78.603 241.018 78.9767 240.922 79.4272 240.922C79.8361 240.922 80.1942 241.008 80.5015 241.18C80.8088 241.349 81.047 241.602 81.2163 241.937C81.3856 242.273 81.4702 242.689 81.4702 243.184V247H80.3022V243.324C80.3022 242.889 80.189 242.549 79.9624 242.305C79.7358 242.057 79.4246 241.934 79.0288 241.934C78.758 241.934 78.5171 241.992 78.3062 242.109C78.0978 242.227 77.9325 242.398 77.8101 242.625C77.6903 242.849 77.6304 243.12 77.6304 243.437ZM85.9321 247V246.125L88.6392 243.32C88.9282 243.016 89.1665 242.749 89.354 242.52C89.5441 242.288 89.686 242.068 89.7798 241.859C89.8735 241.651 89.9204 241.43 89.9204 241.195C89.9204 240.93 89.8579 240.701 89.7329 240.508C89.6079 240.313 89.4373 240.163 89.2212 240.059C89.005 239.952 88.7616 239.898 88.4907 239.898C88.2043 239.898 87.9543 239.957 87.7407 240.074C87.5272 240.191 87.3631 240.357 87.2485 240.57C87.134 240.784 87.0767 241.034 87.0767 241.32H85.9243C85.9243 240.833 86.0363 240.408 86.2603 240.043C86.4842 239.678 86.7915 239.396 87.1821 239.195C87.5728 238.992 88.0168 238.891 88.5142 238.891C89.0168 238.891 89.4595 238.991 89.8423 239.191C90.2277 239.389 90.5285 239.66 90.7446 240.004C90.9608 240.345 91.0688 240.73 91.0688 241.16C91.0688 241.457 91.0129 241.747 90.9009 242.031C90.7915 242.315 90.6001 242.632 90.3267 242.98C90.0532 243.327 89.673 243.747 89.186 244.242L87.5962 245.906V245.965H91.1978V247H85.9321ZM92.6782 247V246.125L95.3853 243.32C95.6743 243.016 95.9126 242.749 96.1001 242.52C96.2902 242.288 96.4321 242.068 96.5259 241.859C96.6196 241.651 96.6665 241.43 96.6665 241.195C96.6665 240.93 96.604 240.701 96.479 240.508C96.354 240.313 96.1834 240.163 95.9673 240.059C95.7511 239.952 95.5076 239.898 95.2368 239.898C94.9504 239.898 94.7004 239.957 94.4868 240.074C94.2733 240.191 94.1092 240.357 93.9946 240.57C93.88 240.784 93.8228 241.034 93.8228 241.32H92.6704C92.6704 240.833 92.7824 240.408 93.0063 240.043C93.2303 239.678 93.5376 239.396 93.9282 239.195C94.3188 238.992 94.7629 238.891 95.2603 238.891C95.7629 238.891 96.2056 238.991 96.5884 239.191C96.9738 239.389 97.2746 239.66 97.4907 240.004C97.7069 240.345 97.8149 240.73 97.8149 241.16C97.8149 241.457 97.759 241.747 97.647 242.031C97.5376 242.315 97.3462 242.632 97.0728 242.98C96.7993 243.327 96.4191 243.747 95.9321 244.242L94.3423 245.906V245.965H97.9438V247H92.6782Z" fill="#A0A2A0"/>
<path id="Jan 24" d="M163.194 239H164.397V244.672C164.397 245.185 164.295 245.624 164.092 245.988C163.892 246.353 163.609 246.632 163.245 246.824C162.88 247.014 162.453 247.109 161.963 247.109C161.513 247.109 161.108 247.027 160.749 246.863C160.392 246.699 160.109 246.461 159.901 246.148C159.695 245.833 159.592 245.451 159.592 245H160.792C160.792 245.221 160.842 245.413 160.944 245.574C161.048 245.736 161.19 245.862 161.37 245.953C161.552 246.042 161.76 246.086 161.995 246.086C162.25 246.086 162.466 246.033 162.643 245.926C162.823 245.816 162.959 245.656 163.053 245.445C163.147 245.234 163.194 244.977 163.194 244.672V239ZM167.806 247.133C167.426 247.133 167.082 247.063 166.775 246.922C166.468 246.779 166.224 246.572 166.044 246.301C165.867 246.03 165.779 245.698 165.779 245.305C165.779 244.966 165.844 244.687 165.974 244.469C166.104 244.25 166.28 244.077 166.501 243.949C166.723 243.822 166.97 243.725 167.244 243.66C167.517 243.595 167.796 243.546 168.08 243.512C168.439 243.47 168.731 243.436 168.955 243.41C169.179 243.382 169.341 243.336 169.443 243.273C169.544 243.211 169.595 243.109 169.595 242.969V242.941C169.595 242.6 169.499 242.336 169.306 242.148C169.116 241.961 168.832 241.867 168.455 241.867C168.061 241.867 167.751 241.954 167.525 242.129C167.301 242.301 167.146 242.492 167.06 242.703L165.962 242.453C166.093 242.089 166.283 241.794 166.533 241.57C166.785 241.344 167.076 241.18 167.404 241.078C167.732 240.974 168.077 240.922 168.439 240.922C168.679 240.922 168.932 240.951 169.201 241.008C169.472 241.062 169.724 241.164 169.958 241.312C170.195 241.461 170.389 241.673 170.541 241.949C170.692 242.223 170.767 242.578 170.767 243.016V247H169.626V246.18H169.58C169.504 246.331 169.391 246.479 169.24 246.625C169.089 246.771 168.895 246.892 168.658 246.988C168.421 247.085 168.137 247.133 167.806 247.133ZM168.06 246.195C168.383 246.195 168.659 246.132 168.888 246.004C169.12 245.876 169.296 245.71 169.416 245.504C169.538 245.296 169.599 245.073 169.599 244.836V244.062C169.557 244.104 169.477 244.143 169.357 244.18C169.24 244.214 169.106 244.243 168.955 244.27C168.804 244.293 168.656 244.315 168.513 244.336C168.37 244.354 168.25 244.37 168.154 244.383C167.927 244.411 167.72 244.46 167.533 244.527C167.348 244.595 167.199 244.693 167.087 244.82C166.978 244.945 166.923 245.112 166.923 245.32C166.923 245.609 167.03 245.828 167.244 245.977C167.457 246.122 167.729 246.195 168.06 246.195ZM173.491 243.437V247H172.323V241H173.444V241.977H173.518C173.656 241.659 173.872 241.404 174.167 241.211C174.463 241.018 174.837 240.922 175.288 240.922C175.696 240.922 176.055 241.008 176.362 241.18C176.669 241.349 176.907 241.602 177.077 241.937C177.246 242.273 177.331 242.689 177.331 243.184V247H176.163V243.324C176.163 242.889 176.049 242.549 175.823 242.305C175.596 242.057 175.285 241.934 174.889 241.934C174.618 241.934 174.377 241.992 174.167 242.109C173.958 242.227 173.793 242.398 173.67 242.625C173.551 242.849 173.491 243.12 173.491 243.437ZM181.792 247V246.125L184.5 243.32C184.789 243.016 185.027 242.749 185.214 242.52C185.404 242.288 185.546 242.068 185.64 241.859C185.734 241.651 185.781 241.43 185.781 241.195C185.781 240.93 185.718 240.701 185.593 240.508C185.468 240.313 185.298 240.163 185.082 240.059C184.865 239.952 184.622 239.898 184.351 239.898C184.065 239.898 183.815 239.957 183.601 240.074C183.388 240.191 183.223 240.357 183.109 240.57C182.994 240.784 182.937 241.034 182.937 241.32H181.785C181.785 240.833 181.897 240.408 182.121 240.043C182.345 239.678 182.652 239.396 183.042 239.195C183.433 238.992 183.877 238.891 184.375 238.891C184.877 238.891 185.32 238.991 185.703 239.191C186.088 239.389 186.389 239.66 186.605 240.004C186.821 240.345 186.929 240.73 186.929 241.16C186.929 241.457 186.873 241.747 186.761 242.031C186.652 242.315 186.46 242.632 186.187 242.98C185.914 243.327 185.533 243.747 185.046 244.242L183.457 245.906V245.965H187.058V247H181.792ZM188.199 245.438V244.461L191.656 239H192.425V240.437H191.937L189.464 244.352V244.414H194.203V245.438H188.199ZM191.992 247V245.141L192 244.695V239H193.144V247H191.992Z" fill="#A0A2A0"/>
<path id="Jan 26" d="M259.21 239H260.413V244.672C260.413 245.185 260.312 245.624 260.108 245.988C259.908 246.353 259.625 246.632 259.261 246.824C258.896 247.014 258.469 247.109 257.979 247.109C257.529 247.109 257.124 247.027 256.765 246.863C256.408 246.699 256.125 246.461 255.917 246.148C255.711 245.833 255.608 245.451 255.608 245H256.808C256.808 245.221 256.858 245.413 256.96 245.574C257.064 245.736 257.206 245.862 257.386 245.953C257.568 246.042 257.776 246.086 258.011 246.086C258.266 246.086 258.482 246.033 258.659 245.926C258.839 245.816 258.976 245.656 259.069 245.445C259.163 245.234 259.21 244.977 259.21 244.672V239ZM263.822 247.133C263.442 247.133 263.098 247.063 262.791 246.922C262.484 246.779 262.24 246.572 262.061 246.301C261.883 246.03 261.795 245.698 261.795 245.305C261.795 244.966 261.86 244.687 261.99 244.469C262.12 244.25 262.296 244.077 262.518 243.949C262.739 243.822 262.986 243.725 263.26 243.66C263.533 243.595 263.812 243.546 264.096 243.512C264.455 243.47 264.747 243.436 264.971 243.41C265.195 243.382 265.357 243.336 265.459 243.273C265.561 243.211 265.611 243.109 265.611 242.969V242.941C265.611 242.6 265.515 242.336 265.322 242.148C265.132 241.961 264.848 241.867 264.471 241.867C264.077 241.867 263.768 241.954 263.541 242.129C263.317 242.301 263.162 242.492 263.076 242.703L261.979 242.453C262.109 242.089 262.299 241.794 262.549 241.57C262.801 241.344 263.092 241.18 263.42 241.078C263.748 240.974 264.093 240.922 264.455 240.922C264.695 240.922 264.949 240.951 265.217 241.008C265.488 241.062 265.74 241.164 265.975 241.312C266.212 241.461 266.406 241.673 266.557 241.949C266.708 242.223 266.783 242.578 266.783 243.016V247H265.643V246.18H265.596C265.52 246.331 265.407 246.479 265.256 246.625C265.105 246.771 264.911 246.892 264.674 246.988C264.437 247.085 264.153 247.133 263.822 247.133ZM264.076 246.195C264.399 246.195 264.675 246.132 264.904 246.004C265.136 245.876 265.312 245.71 265.432 245.504C265.554 245.296 265.615 245.073 265.615 244.836V244.062C265.574 244.104 265.493 244.143 265.373 244.18C265.256 244.214 265.122 244.243 264.971 244.27C264.82 244.293 264.673 244.315 264.529 244.336C264.386 244.354 264.266 244.37 264.17 244.383C263.943 244.411 263.736 244.46 263.549 244.527C263.364 244.595 263.215 244.693 263.104 244.82C262.994 244.945 262.939 245.112 262.939 245.32C262.939 245.609 263.046 245.828 263.26 245.977C263.473 246.122 263.745 246.195 264.076 246.195ZM269.507 243.437V247H268.339V241H269.46V241.977H269.534C269.672 241.659 269.888 241.404 270.183 241.211C270.479 241.018 270.853 240.922 271.304 240.922C271.713 240.922 272.071 241.008 272.378 241.18C272.685 241.349 272.924 241.602 273.093 241.937C273.262 242.273 273.347 242.689 273.347 243.184V247H272.179V243.324C272.179 242.889 272.065 242.549 271.839 242.305C271.612 242.057 271.301 241.934 270.905 241.934C270.634 241.934 270.394 241.992 270.183 242.109C269.974 242.227 269.809 242.398 269.687 242.625C269.567 242.849 269.507 243.12 269.507 243.437ZM277.809 247V246.125L280.516 243.32C280.805 243.016 281.043 242.749 281.23 242.52C281.421 242.288 281.563 242.068 281.656 241.859C281.75 241.651 281.797 241.43 281.797 241.195C281.797 240.93 281.734 240.701 281.609 240.508C281.484 240.313 281.314 240.163 281.098 240.059C280.882 239.952 280.638 239.898 280.367 239.898C280.081 239.898 279.831 239.957 279.617 240.074C279.404 240.191 279.24 240.357 279.125 240.57C279.01 240.784 278.953 241.034 278.953 241.32H277.801C277.801 240.833 277.913 240.408 278.137 240.043C278.361 239.678 278.668 239.396 279.059 239.195C279.449 238.992 279.893 238.891 280.391 238.891C280.893 238.891 281.336 238.991 281.719 239.191C282.104 239.389 282.405 239.66 282.621 240.004C282.837 240.345 282.945 240.73 282.945 241.16C282.945 241.457 282.889 241.747 282.777 242.031C282.668 242.315 282.477 242.632 282.203 242.98C281.93 243.327 281.549 243.747 281.063 244.242L279.473 245.906V245.965H283.074V247H277.809ZM287.348 247.109C286.991 247.104 286.639 247.039 286.293 246.914C285.949 246.789 285.637 246.581 285.355 246.289C285.074 245.997 284.849 245.605 284.68 245.113C284.513 244.621 284.43 244.007 284.43 243.27C284.43 242.572 284.499 241.952 284.637 241.41C284.777 240.868 284.979 240.411 285.242 240.039C285.505 239.664 285.823 239.379 286.195 239.184C286.568 238.988 286.986 238.891 287.449 238.891C287.926 238.891 288.349 238.984 288.719 239.172C289.089 239.359 289.388 239.618 289.617 239.949C289.849 240.28 289.996 240.656 290.059 241.078H288.867C288.786 240.745 288.626 240.473 288.387 240.262C288.147 240.051 287.835 239.945 287.449 239.945C286.863 239.945 286.406 240.201 286.078 240.711C285.753 241.221 285.589 241.931 285.586 242.84H285.645C285.783 242.613 285.952 242.421 286.152 242.262C286.355 242.1 286.582 241.977 286.832 241.891C287.085 241.802 287.35 241.758 287.629 241.758C288.092 241.758 288.512 241.871 288.887 242.098C289.264 242.322 289.565 242.632 289.789 243.027C290.013 243.423 290.125 243.876 290.125 244.387C290.125 244.897 290.009 245.359 289.777 245.773C289.548 246.187 289.225 246.516 288.809 246.758C288.392 246.997 287.905 247.115 287.348 247.109ZM287.344 246.094C287.651 246.094 287.926 246.018 288.168 245.867C288.41 245.716 288.602 245.513 288.742 245.258C288.883 245.003 288.953 244.717 288.953 244.402C288.953 244.095 288.884 243.815 288.746 243.562C288.611 243.31 288.423 243.109 288.184 242.961C287.947 242.812 287.676 242.738 287.371 242.738C287.139 242.738 286.924 242.783 286.727 242.871C286.531 242.96 286.359 243.082 286.211 243.238C286.063 243.395 285.945 243.574 285.859 243.777C285.776 243.978 285.734 244.19 285.734 244.414C285.734 244.714 285.803 244.991 285.941 245.246C286.082 245.501 286.273 245.707 286.516 245.863C286.76 246.017 287.036 246.094 287.344 246.094Z" fill="#A0A2A0"/>
<path id="Jan 28" d="M355.231 239H356.435V244.672C356.435 245.185 356.333 245.624 356.13 245.988C355.929 246.353 355.647 246.632 355.282 246.824C354.918 247.014 354.491 247.109 354.001 247.109C353.55 247.109 353.146 247.027 352.786 246.863C352.429 246.699 352.147 246.461 351.938 246.148C351.733 245.833 351.63 245.451 351.63 245H352.829C352.829 245.221 352.88 245.413 352.981 245.574C353.086 245.736 353.228 245.862 353.407 245.953C353.59 246.042 353.798 246.086 354.032 246.086C354.287 246.086 354.504 246.033 354.681 245.926C354.86 245.816 354.997 245.656 355.091 245.445C355.185 245.234 355.231 244.977 355.231 244.672V239ZM359.844 247.133C359.464 247.133 359.12 247.063 358.813 246.922C358.505 246.779 358.262 246.572 358.082 246.301C357.905 246.03 357.816 245.698 357.816 245.305C357.816 244.966 357.882 244.687 358.012 244.469C358.142 244.25 358.318 244.077 358.539 243.949C358.76 243.822 359.008 243.725 359.281 243.66C359.555 243.595 359.833 243.546 360.117 243.512C360.477 243.47 360.768 243.436 360.992 243.41C361.216 243.382 361.379 243.336 361.48 243.273C361.582 243.211 361.633 243.109 361.633 242.969V242.941C361.633 242.6 361.536 242.336 361.344 242.148C361.154 241.961 360.87 241.867 360.492 241.867C360.099 241.867 359.789 241.954 359.563 242.129C359.339 242.301 359.184 242.492 359.098 242.703L358 242.453C358.13 242.089 358.32 241.794 358.57 241.57C358.823 241.344 359.113 241.18 359.441 241.078C359.77 240.974 360.115 240.922 360.477 240.922C360.716 240.922 360.97 240.951 361.238 241.008C361.509 241.062 361.762 241.164 361.996 241.312C362.233 241.461 362.427 241.673 362.578 241.949C362.729 242.223 362.805 242.578 362.805 243.016V247H361.664V246.18H361.617C361.542 246.331 361.428 246.479 361.277 246.625C361.126 246.771 360.932 246.892 360.695 246.988C360.458 247.085 360.174 247.133 359.844 247.133ZM360.098 246.195C360.421 246.195 360.697 246.132 360.926 246.004C361.158 245.876 361.333 245.71 361.453 245.504C361.576 245.296 361.637 245.073 361.637 244.836V244.062C361.595 244.104 361.514 244.143 361.395 244.18C361.277 244.214 361.143 244.243 360.992 244.27C360.841 244.293 360.694 244.315 360.551 244.336C360.408 244.354 360.288 244.37 360.191 244.383C359.965 244.411 359.758 244.46 359.57 244.527C359.385 244.595 359.237 244.693 359.125 244.82C359.016 244.945 358.961 245.112 358.961 245.32C358.961 245.609 359.068 245.828 359.281 245.977C359.495 246.122 359.767 246.195 360.098 246.195ZM365.528 243.437V247H364.36V241H365.481V241.977H365.556C365.694 241.659 365.91 241.404 366.204 241.211C366.501 241.018 366.875 240.922 367.325 240.922C367.734 240.922 368.092 241.008 368.399 241.18C368.707 241.349 368.945 241.602 369.114 241.937C369.284 242.273 369.368 242.689 369.368 243.184V247H368.2V243.324C368.2 242.889 368.087 242.549 367.86 242.305C367.634 242.057 367.323 241.934 366.927 241.934C366.656 241.934 366.415 241.992 366.204 242.109C365.996 242.227 365.83 242.398 365.708 242.625C365.588 242.849 365.528 243.12 365.528 243.437ZM373.83 247V246.125L376.537 243.32C376.826 243.016 377.064 242.749 377.252 242.52C377.442 242.288 377.584 242.068 377.678 241.859C377.771 241.651 377.818 241.43 377.818 241.195C377.818 240.93 377.756 240.701 377.631 240.508C377.506 240.313 377.335 240.163 377.119 240.059C376.903 239.952 376.66 239.898 376.389 239.898C376.102 239.898 375.852 239.957 375.639 240.074C375.425 240.191 375.261 240.357 375.146 240.57C375.032 240.784 374.975 241.034 374.975 241.32H373.822C373.822 240.833 373.934 240.408 374.158 240.043C374.382 239.678 374.689 239.396 375.08 239.195C375.471 238.992 375.915 238.891 376.412 238.891C376.915 238.891 377.357 238.991 377.74 239.191C378.126 239.389 378.426 239.66 378.643 240.004C378.859 240.345 378.967 240.73 378.967 241.16C378.967 241.457 378.911 241.747 378.799 242.031C378.689 242.315 378.498 242.632 378.225 242.98C377.951 243.327 377.571 243.747 377.084 244.242L375.494 245.906V245.965H379.096V247H373.83ZM383.279 247.109C382.719 247.109 382.225 247.013 381.795 246.82C381.368 246.628 381.033 246.362 380.791 246.023C380.549 245.685 380.429 245.299 380.432 244.867C380.429 244.529 380.498 244.217 380.639 243.934C380.782 243.647 380.976 243.409 381.221 243.219C381.465 243.026 381.739 242.904 382.041 242.852V242.805C381.643 242.708 381.324 242.495 381.084 242.164C380.844 241.833 380.726 241.453 380.729 241.023C380.726 240.615 380.834 240.25 381.053 239.93C381.274 239.607 381.577 239.353 381.963 239.168C382.348 238.983 382.787 238.891 383.279 238.891C383.766 238.891 384.201 238.984 384.584 239.172C384.969 239.357 385.273 239.611 385.494 239.934C385.715 240.254 385.827 240.617 385.83 241.023C385.827 241.453 385.705 241.833 385.463 242.164C385.221 242.495 384.906 242.708 384.518 242.805V242.852C384.817 242.904 385.087 243.026 385.326 243.219C385.568 243.409 385.761 243.647 385.904 243.934C386.05 244.217 386.124 244.529 386.127 244.867C386.124 245.299 386.002 245.685 385.76 246.023C385.518 246.362 385.182 246.628 384.752 246.82C384.325 247.013 383.834 247.109 383.279 247.109ZM383.279 246.121C383.61 246.121 383.896 246.066 384.139 245.957C384.381 245.845 384.568 245.69 384.701 245.492C384.834 245.292 384.902 245.057 384.904 244.789C384.902 244.51 384.829 244.264 384.686 244.051C384.545 243.837 384.354 243.669 384.111 243.547C383.869 243.424 383.592 243.363 383.279 243.363C382.964 243.363 382.684 243.424 382.439 243.547C382.195 243.669 382.002 243.837 381.861 244.051C381.721 244.264 381.652 244.51 381.654 244.789C381.652 245.057 381.715 245.292 381.846 245.492C381.979 245.69 382.167 245.845 382.412 245.957C382.657 246.066 382.946 246.121 383.279 246.121ZM383.279 242.398C383.545 242.398 383.781 242.345 383.986 242.238C384.192 242.132 384.354 241.983 384.471 241.793C384.59 241.603 384.652 241.38 384.654 241.125C384.652 240.875 384.592 240.656 384.475 240.469C384.36 240.281 384.2 240.137 383.994 240.035C383.788 239.931 383.55 239.879 383.279 239.879C383.003 239.879 382.761 239.931 382.553 240.035C382.347 240.137 382.187 240.281 382.072 240.469C381.958 240.656 381.902 240.875 381.904 241.125C381.902 241.38 381.959 241.603 382.076 241.793C382.193 241.983 382.355 242.132 382.561 242.238C382.769 242.345 383.008 242.398 383.279 242.398Z" fill="#A0A2A0"/>
<path id="Jan 30" d="M451.484 239H452.688V244.672C452.688 245.185 452.586 245.624 452.383 245.988C452.182 246.353 451.9 246.632 451.535 246.824C451.171 247.014 450.743 247.109 450.254 247.109C449.803 247.109 449.398 247.027 449.039 246.863C448.682 246.699 448.4 246.461 448.191 246.148C447.986 245.833 447.883 245.451 447.883 245H449.082C449.082 245.221 449.133 245.413 449.234 245.574C449.339 245.736 449.48 245.862 449.66 245.953C449.842 246.042 450.051 246.086 450.285 246.086C450.54 246.086 450.757 246.033 450.934 245.926C451.113 245.816 451.25 245.656 451.344 245.445C451.438 245.234 451.484 244.977 451.484 244.672V239ZM456.097 247.133C455.716 247.133 455.373 247.063 455.065 246.922C454.758 246.779 454.515 246.572 454.335 246.301C454.158 246.03 454.069 245.698 454.069 245.305C454.069 244.966 454.134 244.687 454.265 244.469C454.395 244.25 454.571 244.077 454.792 243.949C455.013 243.822 455.261 243.725 455.534 243.66C455.808 243.595 456.086 243.546 456.37 243.512C456.729 243.47 457.021 243.436 457.245 243.41C457.469 243.382 457.632 243.336 457.733 243.273C457.835 243.211 457.886 243.109 457.886 242.969V242.941C457.886 242.6 457.789 242.336 457.597 242.148C457.407 241.961 457.123 241.867 456.745 241.867C456.352 241.867 456.042 241.954 455.815 242.129C455.591 242.301 455.437 242.492 455.351 242.703L454.253 242.453C454.383 242.089 454.573 241.794 454.823 241.57C455.076 241.344 455.366 241.18 455.694 241.078C456.022 240.974 456.368 240.922 456.729 240.922C456.969 240.922 457.223 240.951 457.491 241.008C457.762 241.062 458.015 241.164 458.249 241.312C458.486 241.461 458.68 241.673 458.831 241.949C458.982 242.223 459.058 242.578 459.058 243.016V247H457.917V246.18H457.87C457.795 246.331 457.681 246.479 457.53 246.625C457.379 246.771 457.185 246.892 456.948 246.988C456.711 247.085 456.427 247.133 456.097 247.133ZM456.351 246.195C456.674 246.195 456.95 246.132 457.179 246.004C457.41 245.876 457.586 245.71 457.706 245.504C457.828 245.296 457.89 245.073 457.89 244.836V244.062C457.848 244.104 457.767 244.143 457.647 244.18C457.53 244.214 457.396 244.243 457.245 244.27C457.094 244.293 456.947 244.315 456.804 244.336C456.66 244.354 456.541 244.37 456.444 244.383C456.218 244.411 456.011 244.46 455.823 244.527C455.638 244.595 455.49 244.693 455.378 244.82C455.269 244.945 455.214 245.112 455.214 245.32C455.214 245.609 455.321 245.828 455.534 245.977C455.748 246.122 456.02 246.195 456.351 246.195ZM461.781 243.437V247H460.613V241H461.734V241.977H461.809C461.947 241.659 462.163 241.404 462.457 241.211C462.754 241.018 463.128 240.922 463.578 240.922C463.987 240.922 464.345 241.008 464.652 241.18C464.96 241.349 465.198 241.602 465.367 241.937C465.536 242.273 465.621 242.689 465.621 243.184V247H464.453V243.324C464.453 242.889 464.34 242.549 464.113 242.305C463.887 242.057 463.576 241.934 463.18 241.934C462.909 241.934 462.668 241.992 462.457 242.109C462.249 242.227 462.083 242.398 461.961 242.625C461.841 242.849 461.781 243.12 461.781 243.437ZM472.868 247.109C472.332 247.109 471.853 247.017 471.431 246.832C471.011 246.647 470.679 246.391 470.435 246.062C470.192 245.732 470.062 245.349 470.044 244.914H471.271C471.286 245.151 471.366 245.357 471.509 245.531C471.655 245.703 471.845 245.836 472.079 245.93C472.313 246.023 472.574 246.07 472.86 246.07C473.175 246.07 473.454 246.016 473.696 245.906C473.941 245.797 474.132 245.645 474.271 245.449C474.409 245.251 474.478 245.023 474.478 244.766C474.478 244.497 474.409 244.262 474.271 244.059C474.135 243.853 473.936 243.691 473.673 243.574C473.412 243.457 473.097 243.398 472.728 243.398H472.052V242.414H472.728C473.024 242.414 473.285 242.361 473.509 242.254C473.735 242.147 473.912 241.999 474.04 241.809C474.168 241.616 474.231 241.391 474.231 241.133C474.231 240.885 474.175 240.671 474.063 240.488C473.954 240.303 473.798 240.159 473.595 240.055C473.394 239.951 473.157 239.898 472.884 239.898C472.623 239.898 472.38 239.947 472.153 240.043C471.929 240.137 471.747 240.272 471.606 240.449C471.466 240.624 471.39 240.833 471.38 241.078H470.212C470.225 240.646 470.353 240.266 470.595 239.937C470.84 239.609 471.162 239.353 471.563 239.168C471.965 238.983 472.41 238.891 472.899 238.891C473.412 238.891 473.855 238.991 474.228 239.191C474.603 239.389 474.892 239.654 475.095 239.984C475.3 240.315 475.402 240.677 475.399 241.07C475.402 241.518 475.277 241.898 475.024 242.211C474.774 242.523 474.441 242.733 474.024 242.84V242.902C474.556 242.983 474.967 243.194 475.259 243.535C475.553 243.876 475.699 244.299 475.696 244.805C475.699 245.245 475.576 245.639 475.329 245.988C475.084 246.337 474.75 246.612 474.325 246.812C473.901 247.01 473.415 247.109 472.868 247.109ZM479.958 247.133C479.341 247.13 478.813 246.967 478.376 246.645C477.938 246.322 477.604 245.852 477.372 245.234C477.14 244.617 477.024 243.874 477.024 243.004C477.024 242.137 477.14 241.396 477.372 240.781C477.606 240.167 477.942 239.698 478.38 239.375C478.82 239.052 479.346 238.891 479.958 238.891C480.57 238.891 481.095 239.053 481.532 239.379C481.97 239.702 482.304 240.171 482.536 240.785C482.771 241.397 482.888 242.137 482.888 243.004C482.888 243.876 482.772 244.621 482.54 245.238C482.308 245.853 481.974 246.323 481.536 246.648C481.099 246.971 480.573 247.133 479.958 247.133ZM479.958 246.09C480.5 246.09 480.923 245.826 481.228 245.297C481.535 244.768 481.688 244.004 481.688 243.004C481.688 242.34 481.618 241.779 481.478 241.32C481.34 240.859 481.14 240.51 480.88 240.273C480.622 240.034 480.315 239.914 479.958 239.914C479.419 239.914 478.996 240.18 478.688 240.711C478.381 241.242 478.226 242.007 478.224 243.004C478.224 243.671 478.293 244.234 478.431 244.695C478.571 245.154 478.771 245.501 479.028 245.738C479.286 245.973 479.596 246.09 479.958 246.09Z" fill="#A0A2A0"/>
<path id="Feb 2" d="M547.377 247V239H552.338V240.039H548.584V242.477H551.982V243.512H548.584V247H547.377ZM555.874 247.121C555.283 247.121 554.774 246.995 554.347 246.742C553.922 246.487 553.594 246.129 553.362 245.668C553.133 245.204 553.019 244.661 553.019 244.039C553.019 243.424 553.133 242.883 553.362 242.414C553.594 241.945 553.917 241.579 554.331 241.316C554.748 241.053 555.235 240.922 555.792 240.922C556.131 240.922 556.459 240.978 556.776 241.09C557.094 241.202 557.379 241.378 557.632 241.617C557.884 241.857 558.084 242.168 558.229 242.551C558.375 242.931 558.448 243.393 558.448 243.937V244.352H553.679V243.477H557.304C557.304 243.169 557.241 242.897 557.116 242.66C556.991 242.421 556.815 242.232 556.589 242.094C556.365 241.956 556.102 241.887 555.8 241.887C555.472 241.887 555.185 241.967 554.94 242.129C554.698 242.288 554.511 242.496 554.378 242.754C554.248 243.009 554.183 243.286 554.183 243.586V244.27C554.183 244.671 554.253 245.012 554.394 245.293C554.537 245.574 554.736 245.789 554.991 245.937C555.246 246.083 555.545 246.156 555.886 246.156C556.107 246.156 556.309 246.125 556.491 246.062C556.674 245.997 556.831 245.901 556.964 245.773C557.097 245.646 557.198 245.488 557.269 245.301L558.374 245.5C558.285 245.826 558.127 246.111 557.897 246.355C557.671 246.598 557.386 246.786 557.042 246.922C556.701 247.055 556.312 247.121 555.874 247.121ZM559.838 247V239H561.006V241.973H561.076C561.144 241.848 561.242 241.703 561.369 241.539C561.497 241.375 561.674 241.232 561.9 241.109C562.127 240.984 562.426 240.922 562.799 240.922C563.283 240.922 563.715 241.044 564.096 241.289C564.476 241.534 564.774 241.887 564.99 242.348C565.209 242.809 565.318 243.363 565.318 244.012C565.318 244.66 565.21 245.216 564.994 245.68C564.778 246.141 564.481 246.496 564.104 246.746C563.726 246.993 563.295 247.117 562.811 247.117C562.446 247.117 562.148 247.056 561.916 246.934C561.687 246.811 561.507 246.668 561.377 246.504C561.247 246.34 561.146 246.194 561.076 246.066H560.979V247H559.838ZM560.982 244C560.982 244.422 561.044 244.792 561.166 245.109C561.288 245.427 561.465 245.676 561.697 245.855C561.929 246.033 562.213 246.121 562.549 246.121C562.898 246.121 563.189 246.029 563.424 245.844C563.658 245.656 563.835 245.402 563.955 245.082C564.077 244.762 564.139 244.401 564.139 244C564.139 243.604 564.079 243.249 563.959 242.934C563.842 242.618 563.665 242.37 563.428 242.188C563.193 242.005 562.9 241.914 562.549 241.914C562.21 241.914 561.924 242.001 561.689 242.176C561.458 242.35 561.282 242.594 561.162 242.906C561.042 243.219 560.982 243.583 560.982 244ZM569.525 247V246.125L572.232 243.32C572.521 243.016 572.76 242.749 572.947 242.52C573.137 242.288 573.279 242.068 573.373 241.859C573.467 241.651 573.514 241.43 573.514 241.195C573.514 240.93 573.451 240.701 573.326 240.508C573.201 240.313 573.031 240.163 572.814 240.059C572.598 239.952 572.355 239.898 572.084 239.898C571.798 239.898 571.548 239.957 571.334 240.074C571.12 240.191 570.956 240.357 570.842 240.57C570.727 240.784 570.67 241.034 570.67 241.32H569.518C569.518 240.833 569.63 240.408 569.854 240.043C570.077 239.678 570.385 239.396 570.775 239.195C571.166 238.992 571.61 238.891 572.107 238.891C572.61 238.891 573.053 238.991 573.436 239.191C573.821 239.389 574.122 239.66 574.338 240.004C574.554 240.345 574.662 240.73 574.662 241.16C574.662 241.457 574.606 241.747 574.494 242.031C574.385 242.315 574.193 242.632 573.92 242.98C573.646 243.327 573.266 243.747 572.779 244.242L571.189 245.906V245.965H574.791V247H569.525Z" fill="#A0A2A0"/>
<path id="Feb 4" d="M643.151 247V239H648.112V240.039H644.358V242.477H647.757V243.512H644.358V247H643.151ZM651.648 247.121C651.057 247.121 650.548 246.995 650.121 246.742C649.697 246.487 649.368 246.129 649.137 245.668C648.908 245.204 648.793 244.661 648.793 244.039C648.793 243.424 648.908 242.883 649.137 242.414C649.368 241.945 649.691 241.579 650.105 241.316C650.522 241.053 651.009 240.922 651.566 240.922C651.905 240.922 652.233 240.978 652.551 241.09C652.868 241.202 653.154 241.378 653.406 241.617C653.659 241.857 653.858 242.168 654.004 242.551C654.15 242.931 654.223 243.393 654.223 243.937V244.352H649.453V243.477H653.078C653.078 243.169 653.016 242.897 652.891 242.66C652.766 242.421 652.59 242.232 652.363 242.094C652.139 241.956 651.876 241.887 651.574 241.887C651.246 241.887 650.96 241.967 650.715 242.129C650.473 242.288 650.285 242.496 650.152 242.754C650.022 243.009 649.957 243.286 649.957 243.586V244.27C649.957 244.671 650.027 245.012 650.168 245.293C650.311 245.574 650.51 245.789 650.766 245.937C651.021 246.083 651.319 246.156 651.66 246.156C651.882 246.156 652.083 246.125 652.266 246.062C652.448 245.997 652.605 245.901 652.738 245.773C652.871 245.646 652.973 245.488 653.043 245.301L654.148 245.5C654.06 245.826 653.901 246.111 653.672 246.355C653.445 246.598 653.16 246.786 652.816 246.922C652.475 247.055 652.086 247.121 651.648 247.121ZM655.612 247V239H656.78V241.973H656.851C656.918 241.848 657.016 241.703 657.144 241.539C657.271 241.375 657.448 241.232 657.675 241.109C657.901 240.984 658.201 240.922 658.573 240.922C659.058 240.922 659.49 241.044 659.87 241.289C660.25 241.534 660.549 241.887 660.765 242.348C660.983 242.809 661.093 243.363 661.093 244.012C661.093 244.66 660.985 245.216 660.769 245.68C660.552 246.141 660.256 246.496 659.878 246.746C659.5 246.993 659.069 247.117 658.585 247.117C658.22 247.117 657.922 247.056 657.69 246.934C657.461 246.811 657.282 246.668 657.151 246.504C657.021 246.34 656.921 246.194 656.851 246.066H656.753V247H655.612ZM656.757 244C656.757 244.422 656.818 244.792 656.94 245.109C657.063 245.427 657.24 245.676 657.472 245.855C657.703 246.033 657.987 246.121 658.323 246.121C658.672 246.121 658.964 246.029 659.198 245.844C659.433 245.656 659.61 245.402 659.729 245.082C659.852 244.762 659.913 244.401 659.913 244C659.913 243.604 659.853 243.249 659.733 242.934C659.616 242.618 659.439 242.37 659.202 242.188C658.968 242.005 658.675 241.914 658.323 241.914C657.985 241.914 657.698 242.001 657.464 242.176C657.232 242.35 657.056 242.594 656.937 242.906C656.817 243.219 656.757 243.583 656.757 244ZM665.132 245.438V244.461L668.589 239H669.358V240.437H668.87L666.397 244.352V244.414H671.136V245.438H665.132ZM668.925 247V245.141L668.933 244.695V239H670.077V247H668.925Z" fill="#A0A2A0"/>
<path id="0h 01m" d="M5.9043 172.133C5.28711 172.13 4.75977 171.967 4.32227 171.645C3.88477 171.322 3.55013 170.852 3.31836 170.234C3.08659 169.617 2.9707 168.874 2.9707 168.004C2.9707 167.137 3.08659 166.396 3.31836 165.781C3.55273 165.167 3.88867 164.698 4.32617 164.375C4.76628 164.052 5.29232 163.891 5.9043 163.891C6.51628 163.891 7.04102 164.053 7.47852 164.379C7.91602 164.702 8.25065 165.171 8.48242 165.785C8.7168 166.397 8.83398 167.137 8.83398 168.004C8.83398 168.876 8.7181 169.621 8.48633 170.238C8.25456 170.853 7.91992 171.323 7.48242 171.648C7.04492 171.971 6.51888 172.133 5.9043 172.133ZM5.9043 171.09C6.44596 171.09 6.86914 170.826 7.17383 170.297C7.48112 169.768 7.63477 169.004 7.63477 168.004C7.63477 167.34 7.56445 166.779 7.42383 166.32C7.28581 165.859 7.08659 165.51 6.82617 165.273C6.56836 165.034 6.26107 164.914 5.9043 164.914C5.36523 164.914 4.94206 165.18 4.63477 165.711C4.32747 166.242 4.17253 167.007 4.16992 168.004C4.16992 168.671 4.23893 169.234 4.37695 169.695C4.51758 170.154 4.7168 170.501 4.97461 170.738C5.23242 170.973 5.54232 171.09 5.9043 171.09ZM11.4033 168.437V172H10.2354V164H11.3877V166.977H11.4619C11.6025 166.654 11.8174 166.397 12.1064 166.207C12.3955 166.017 12.7731 165.922 13.2393 165.922C13.6507 165.922 14.0101 166.007 14.3174 166.176C14.6273 166.345 14.8669 166.598 15.0361 166.934C15.208 167.267 15.2939 167.684 15.2939 168.184V172H14.126V168.324C14.126 167.884 14.0127 167.543 13.7861 167.301C13.5596 167.056 13.2445 166.934 12.8408 166.934C12.5648 166.934 12.3174 166.992 12.0986 167.109C11.8825 167.227 11.7119 167.398 11.5869 167.625C11.4645 167.849 11.4033 168.12 11.4033 168.437ZM22.5332 172.133C21.916 172.13 21.3887 171.967 20.9512 171.645C20.5137 171.322 20.179 170.852 19.9473 170.234C19.7155 169.617 19.5996 168.874 19.5996 168.004C19.5996 167.137 19.7155 166.396 19.9473 165.781C20.1816 165.167 20.5176 164.698 20.9551 164.375C21.3952 164.052 21.9212 163.891 22.5332 163.891C23.1452 163.891 23.6699 164.053 24.1074 164.379C24.5449 164.702 24.8796 165.171 25.1113 165.785C25.3457 166.397 25.4629 167.137 25.4629 168.004C25.4629 168.876 25.347 169.621 25.1152 170.238C24.8835 170.853 24.5488 171.323 24.1113 171.648C23.6738 171.971 23.1478 172.133 22.5332 172.133ZM22.5332 171.09C23.0749 171.09 23.498 170.826 23.8027 170.297C24.11 169.768 24.2637 169.004 24.2637 168.004C24.2637 167.34 24.1934 166.779 24.0527 166.32C23.9147 165.859 23.7155 165.51 23.4551 165.273C23.1973 165.034 22.89 164.914 22.5332 164.914C21.9941 164.914 21.571 165.18 21.2637 165.711C20.9564 166.242 20.8014 167.007 20.7988 168.004C20.7988 168.671 20.8678 169.234 21.0059 169.695C21.1465 170.154 21.3457 170.501 21.6035 170.738C21.8613 170.973 22.1712 171.09 22.5332 171.09ZM29.8838 164V172H28.6729V165.211H28.626L26.7119 166.461V165.305L28.708 164H29.8838ZM32.0635 172V166H33.1846V166.977H33.2588C33.3838 166.646 33.5882 166.388 33.8721 166.203C34.1559 166.016 34.4958 165.922 34.8916 165.922C35.2926 165.922 35.6286 166.016 35.8994 166.203C36.1729 166.391 36.3747 166.648 36.5049 166.977H36.5674C36.7106 166.656 36.9385 166.401 37.251 166.211C37.5635 166.018 37.9359 165.922 38.3682 165.922C38.9124 165.922 39.3564 166.092 39.7002 166.434C40.0465 166.775 40.2197 167.289 40.2197 167.977V172H39.0518V168.086C39.0518 167.68 38.9411 167.385 38.7197 167.203C38.4984 167.021 38.234 166.93 37.9268 166.93C37.5465 166.93 37.251 167.047 37.04 167.281C36.8291 167.513 36.7236 167.811 36.7236 168.176V172H35.5596V168.012C35.5596 167.686 35.458 167.424 35.2549 167.227C35.0518 167.029 34.7874 166.93 34.4619 166.93C34.2406 166.93 34.0361 166.988 33.8486 167.105C33.6637 167.22 33.514 167.38 33.3994 167.586C33.2874 167.792 33.2314 168.03 33.2314 168.301V172H32.0635Z" fill="#A0A2A0"/>
<path id="0h 02m" d="M4.35742 118.133C3.74023 118.13 3.21289 117.967 2.77539 117.645C2.33789 117.322 2.00326 116.852 1.77148 116.234C1.53971 115.617 1.42383 114.874 1.42383 114.004C1.42383 113.137 1.53971 112.396 1.77148 111.781C2.00586 111.167 2.3418 110.698 2.7793 110.375C3.2194 110.052 3.74544 109.891 4.35742 109.891C4.9694 109.891 5.49414 110.053 5.93164 110.379C6.36914 110.702 6.70378 111.171 6.93555 111.785C7.16992 112.397 7.28711 113.137 7.28711 114.004C7.28711 114.876 7.17122 115.621 6.93945 116.238C6.70768 116.853 6.37305 117.323 5.93555 117.648C5.49805 117.971 4.97201 118.133 4.35742 118.133ZM4.35742 117.09C4.89909 117.09 5.32227 116.826 5.62695 116.297C5.93424 115.768 6.08789 115.004 6.08789 114.004C6.08789 113.34 6.01758 112.779 5.87695 112.32C5.73893 111.859 5.53971 111.51 5.2793 111.273C5.02148 111.034 4.71419 110.914 4.35742 110.914C3.81836 110.914 3.39518 111.18 3.08789 111.711C2.7806 112.242 2.62565 113.007 2.62305 114.004C2.62305 114.671 2.69206 115.234 2.83008 115.695C2.9707 116.154 3.16992 116.501 3.42773 116.738C3.68555 116.973 3.99544 117.09 4.35742 117.09ZM9.85645 114.437V118H8.68848V110H9.84082V112.977H9.91504C10.0557 112.654 10.2705 112.397 10.5596 112.207C10.8486 112.017 11.2262 111.922 11.6924 111.922C12.1038 111.922 12.4632 112.007 12.7705 112.176C13.0804 112.345 13.32 112.598 13.4893 112.934C13.6611 113.267 13.7471 113.684 13.7471 114.184V118H12.5791V114.324C12.5791 113.884 12.4658 113.543 12.2393 113.301C12.0127 113.056 11.6976 112.934 11.2939 112.934C11.0179 112.934 10.7705 112.992 10.5518 113.109C10.3356 113.227 10.165 113.398 10.04 113.625C9.91764 113.849 9.85645 114.12 9.85645 114.437ZM20.9863 118.133C20.3691 118.13 19.8418 117.967 19.4043 117.645C18.9668 117.322 18.6322 116.852 18.4004 116.234C18.1686 115.617 18.0527 114.874 18.0527 114.004C18.0527 113.137 18.1686 112.396 18.4004 111.781C18.6348 111.167 18.9707 110.698 19.4082 110.375C19.8483 110.052 20.3743 109.891 20.9863 109.891C21.5983 109.891 22.123 110.053 22.5605 110.379C22.998 110.702 23.3327 111.171 23.5645 111.785C23.7988 112.397 23.916 113.137 23.916 114.004C23.916 114.876 23.8001 115.621 23.5684 116.238C23.3366 116.853 23.002 117.323 22.5645 117.648C22.127 117.971 21.6009 118.133 20.9863 118.133ZM20.9863 117.09C21.528 117.09 21.9512 116.826 22.2559 116.297C22.5632 115.768 22.7168 115.004 22.7168 114.004C22.7168 113.34 22.6465 112.779 22.5059 112.32C22.3678 111.859 22.1686 111.51 21.9082 111.273C21.6504 111.034 21.3431 110.914 20.9863 110.914C20.4473 110.914 20.0241 111.18 19.7168 111.711C19.4095 112.242 19.2546 113.007 19.252 114.004C19.252 114.671 19.321 115.234 19.459 115.695C19.5996 116.154 19.7988 116.501 20.0566 116.738C20.3145 116.973 20.6243 117.09 20.9863 117.09ZM25.3018 118V117.125L28.0088 114.32C28.2979 114.016 28.5361 113.749 28.7236 113.52C28.9137 113.288 29.0557 113.068 29.1494 112.859C29.2432 112.651 29.29 112.43 29.29 112.195C29.29 111.93 29.2275 111.701 29.1025 111.508C28.9775 111.313 28.807 111.163 28.5908 111.059C28.3747 110.952 28.1312 110.898 27.8604 110.898C27.5739 110.898 27.3239 110.957 27.1104 111.074C26.8968 111.191 26.7327 111.357 26.6182 111.57C26.5036 111.784 26.4463 112.034 26.4463 112.32H25.2939C25.2939 111.833 25.4059 111.408 25.6299 111.043C25.8538 110.678 26.1611 110.396 26.5518 110.195C26.9424 109.992 27.3864 109.891 27.8838 109.891C28.3864 109.891 28.8291 109.991 29.2119 110.191C29.5973 110.389 29.8981 110.66 30.1143 111.004C30.3304 111.345 30.4385 111.73 30.4385 112.16C30.4385 112.457 30.3825 112.747 30.2705 113.031C30.1611 113.315 29.9697 113.632 29.6963 113.98C29.4229 114.327 29.0426 114.747 28.5557 115.242L26.9658 116.906V116.965H30.5674V118H25.3018ZM32.0635 118V112H33.1846V112.977H33.2588C33.3838 112.646 33.5882 112.388 33.8721 112.203C34.1559 112.016 34.4958 111.922 34.8916 111.922C35.2926 111.922 35.6286 112.016 35.8994 112.203C36.1729 112.391 36.3747 112.648 36.5049 112.977H36.5674C36.7106 112.656 36.9385 112.401 37.251 112.211C37.5635 112.018 37.9359 111.922 38.3682 111.922C38.9124 111.922 39.3564 112.092 39.7002 112.434C40.0465 112.775 40.2197 113.289 40.2197 113.977V118H39.0518V114.086C39.0518 113.68 38.9411 113.385 38.7197 113.203C38.4984 113.021 38.234 112.93 37.9268 112.93C37.5465 112.93 37.251 113.047 37.04 113.281C36.8291 113.513 36.7236 113.811 36.7236 114.176V118H35.5596V114.012C35.5596 113.686 35.458 113.424 35.2549 113.227C35.0518 113.029 34.7874 112.93 34.4619 112.93C34.2406 112.93 34.0361 112.988 33.8486 113.105C33.6637 113.22 33.514 113.38 33.3994 113.586C33.2874 113.792 33.2314 114.03 33.2314 114.301V118H32.0635Z" fill="#A0A2A0"/>
<path id="0h 03m" d="M4.01367 64.1328C3.39648 64.1302 2.86914 63.9674 2.43164 63.6445C1.99414 63.3216 1.65951 62.8516 1.42773 62.2344C1.19596 61.6172 1.08008 60.8737 1.08008 60.0039C1.08008 59.1367 1.19596 58.3958 1.42773 57.7812C1.66211 57.1667 1.99805 56.6979 2.43555 56.375C2.87565 56.0521 3.40169 55.8906 4.01367 55.8906C4.62565 55.8906 5.15039 56.0534 5.58789 56.3789C6.02539 56.7018 6.36003 57.1706 6.5918 57.7852C6.82617 58.3971 6.94336 59.1367 6.94336 60.0039C6.94336 60.8763 6.82747 61.6211 6.5957 62.2383C6.36393 62.8529 6.0293 63.3229 5.5918 63.6484C5.1543 63.9714 4.62826 64.1328 4.01367 64.1328ZM4.01367 63.0898C4.55534 63.0898 4.97852 62.8255 5.2832 62.2969C5.59049 61.7682 5.74414 61.0039 5.74414 60.0039C5.74414 59.3398 5.67383 58.7786 5.5332 58.3203C5.39518 57.8594 5.19596 57.5104 4.93555 57.2734C4.67773 57.0339 4.37044 56.9141 4.01367 56.9141C3.47461 56.9141 3.05143 57.1797 2.74414 57.7109C2.43685 58.2422 2.2819 59.0065 2.2793 60.0039C2.2793 60.6706 2.34831 61.2344 2.48633 61.6953C2.62695 62.1536 2.82617 62.5013 3.08398 62.7383C3.3418 62.9727 3.65169 63.0898 4.01367 63.0898ZM9.5127 60.4375V64H8.34473V56H9.49707V58.9766H9.57129C9.71191 58.6536 9.92676 58.3971 10.2158 58.207C10.5049 58.0169 10.8825 57.9219 11.3486 57.9219C11.7601 57.9219 12.1195 58.0065 12.4268 58.1758C12.7367 58.3451 12.9762 58.5977 13.1455 58.9336C13.3174 59.2669 13.4033 59.6836 13.4033 60.1836V64H12.2354V60.3242C12.2354 59.8841 12.1221 59.543 11.8955 59.3008C11.6689 59.056 11.3538 58.9336 10.9502 58.9336C10.6742 58.9336 10.4268 58.9922 10.208 59.1094C9.99186 59.2266 9.82129 59.3984 9.69629 59.625C9.57389 59.849 9.5127 60.1198 9.5127 60.4375ZM20.6426 64.1328C20.0254 64.1302 19.498 63.9674 19.0605 63.6445C18.623 63.3216 18.2884 62.8516 18.0566 62.2344C17.8249 61.6172 17.709 60.8737 17.709 60.0039C17.709 59.1367 17.8249 58.3958 18.0566 57.7812C18.291 57.1667 18.627 56.6979 19.0645 56.375C19.5046 56.0521 20.0306 55.8906 20.6426 55.8906C21.2546 55.8906 21.7793 56.0534 22.2168 56.3789C22.6543 56.7018 22.9889 57.1706 23.2207 57.7852C23.4551 58.3971 23.5723 59.1367 23.5723 60.0039C23.5723 60.8763 23.4564 61.6211 23.2246 62.2383C22.9928 62.8529 22.6582 63.3229 22.2207 63.6484C21.7832 63.9714 21.2572 64.1328 20.6426 64.1328ZM20.6426 63.0898C21.1842 63.0898 21.6074 62.8255 21.9121 62.2969C22.2194 61.7682 22.373 61.0039 22.373 60.0039C22.373 59.3398 22.3027 58.7786 22.1621 58.3203C22.0241 57.8594 21.8249 57.5104 21.5645 57.2734C21.3066 57.0339 20.9993 56.9141 20.6426 56.9141C20.1035 56.9141 19.6803 57.1797 19.373 57.7109C19.0658 58.2422 18.9108 59.0065 18.9082 60.0039C18.9082 60.6706 18.9772 61.2344 19.1152 61.6953C19.2559 62.1536 19.4551 62.5013 19.7129 62.7383C19.9707 62.9727 20.2806 63.0898 20.6426 63.0898ZM27.7432 64.1094C27.2067 64.1094 26.7275 64.0169 26.3057 63.832C25.8864 63.6471 25.5544 63.3906 25.3096 63.0625C25.0674 62.7318 24.9372 62.349 24.9189 61.9141H26.1455C26.1611 62.151 26.2406 62.3568 26.3838 62.5312C26.5296 62.7031 26.7197 62.8359 26.9541 62.9297C27.1885 63.0234 27.4489 63.0703 27.7354 63.0703C28.0505 63.0703 28.3291 63.0156 28.5713 62.9062C28.8161 62.7969 29.0075 62.6445 29.1455 62.4492C29.2835 62.2513 29.3525 62.0234 29.3525 61.7656C29.3525 61.4974 29.2835 61.2617 29.1455 61.0586C29.0101 60.8529 28.8109 60.6914 28.5479 60.5742C28.2874 60.457 27.9723 60.3984 27.6025 60.3984H26.9268V59.4141H27.6025C27.8994 59.4141 28.1598 59.3607 28.3838 59.2539C28.6104 59.1471 28.7874 58.9987 28.915 58.8086C29.0426 58.6159 29.1064 58.3906 29.1064 58.1328C29.1064 57.8854 29.0505 57.6706 28.9385 57.4883C28.8291 57.3034 28.6729 57.1589 28.4697 57.0547C28.2692 56.9505 28.0322 56.8984 27.7588 56.8984C27.4984 56.8984 27.2549 56.9466 27.0283 57.043C26.8044 57.1367 26.6221 57.2721 26.4814 57.4492C26.3408 57.6237 26.2653 57.8333 26.2549 58.0781H25.0869C25.0999 57.6458 25.2275 57.2656 25.4697 56.9375C25.7145 56.6094 26.0374 56.3529 26.4385 56.168C26.8395 55.9831 27.2848 55.8906 27.7744 55.8906C28.2874 55.8906 28.7301 55.9909 29.1025 56.1914C29.4775 56.3893 29.7666 56.6536 29.9697 56.9844C30.1755 57.3151 30.277 57.6771 30.2744 58.0703C30.277 58.5182 30.152 58.8984 29.8994 59.2109C29.6494 59.5234 29.3161 59.7331 28.8994 59.8398V59.9023C29.4307 59.9831 29.8421 60.194 30.1338 60.5352C30.4281 60.8763 30.5739 61.2995 30.5713 61.8047C30.5739 62.2448 30.4515 62.6393 30.2041 62.9883C29.9593 63.3372 29.6247 63.612 29.2002 63.8125C28.7757 64.0104 28.29 64.1094 27.7432 64.1094ZM32.0635 64V58H33.1846V58.9766H33.2588C33.3838 58.6458 33.5882 58.388 33.8721 58.2031C34.1559 58.0156 34.4958 57.9219 34.8916 57.9219C35.2926 57.9219 35.6286 58.0156 35.8994 58.2031C36.1729 58.3906 36.3747 58.6484 36.5049 58.9766H36.5674C36.7106 58.6562 36.9385 58.401 37.251 58.2109C37.5635 58.0182 37.9359 57.9219 38.3682 57.9219C38.9124 57.9219 39.3564 58.0924 39.7002 58.4336C40.0465 58.7747 40.2197 59.2891 40.2197 59.9766V64H39.0518V60.0859C39.0518 59.6797 38.9411 59.3854 38.7197 59.2031C38.4984 59.0208 38.234 58.9297 37.9268 58.9297C37.5465 58.9297 37.251 59.0469 37.04 59.2812C36.8291 59.513 36.7236 59.8112 36.7236 60.1758V64H35.5596V60.0117C35.5596 59.6862 35.458 59.4245 35.2549 59.2266C35.0518 59.0286 34.7874 58.9297 34.4619 58.9297C34.2406 58.9297 34.0361 58.9883 33.8486 59.1055C33.6637 59.2201 33.514 59.3802 33.3994 59.5859C33.2874 59.7917 33.2314 60.0299 33.2314 60.3008V64H32.0635Z" fill="#A0A2A0"/>
<path id="0h 04m" d="M3.90625 10.1328C3.28906 10.1302 2.76172 9.96745 2.32422 9.64453C1.88672 9.32161 1.55208 8.85156 1.32031 8.23437C1.08854 7.61719 0.972656 6.8737 0.972656 6.00391C0.972656 5.13672 1.08854 4.39583 1.32031 3.78125C1.55469 3.16667 1.89063 2.69792 2.32812 2.375C2.76823 2.05208 3.29427 1.89062 3.90625 1.89062C4.51823 1.89062 5.04297 2.05339 5.48047 2.37891C5.91797 2.70182 6.2526 3.17057 6.48438 3.78516C6.71875 4.39714 6.83594 5.13672 6.83594 6.00391C6.83594 6.8763 6.72005 7.62109 6.48828 8.23828C6.25651 8.85286 5.92188 9.32292 5.48438 9.64844C5.04688 9.97135 4.52083 10.1328 3.90625 10.1328ZM3.90625 9.08984C4.44792 9.08984 4.87109 8.82552 5.17578 8.29687C5.48307 7.76823 5.63672 7.00391 5.63672 6.00391C5.63672 5.33984 5.56641 4.77865 5.42578 4.32031C5.28776 3.85937 5.08854 3.51042 4.82813 3.27344C4.57031 3.03385 4.26302 2.91406 3.90625 2.91406C3.36719 2.91406 2.94401 3.17969 2.63672 3.71094C2.32943 4.24219 2.17448 5.00651 2.17187 6.00391C2.17187 6.67057 2.24089 7.23438 2.37891 7.69531C2.51953 8.15365 2.71875 8.5013 2.97656 8.73828C3.23438 8.97266 3.54427 9.08984 3.90625 9.08984ZM9.40527 6.4375V10H8.2373V2H9.38965V4.97656H9.46387C9.60449 4.65365 9.81934 4.39714 10.1084 4.20703C10.3975 4.01693 10.7751 3.92188 11.2412 3.92188C11.6527 3.92188 12.012 4.00651 12.3193 4.17578C12.6292 4.34505 12.8688 4.59766 13.0381 4.93359C13.21 5.26693 13.2959 5.68359 13.2959 6.18359V10H12.1279V6.32422C12.1279 5.88411 12.0146 5.54297 11.7881 5.30078C11.5615 5.05599 11.2464 4.93359 10.8428 4.93359C10.5667 4.93359 10.3193 4.99219 10.1006 5.10937C9.88444 5.22656 9.71387 5.39844 9.58887 5.625C9.46647 5.84896 9.40527 6.11979 9.40527 6.4375ZM20.5352 10.1328C19.918 10.1302 19.3906 9.96745 18.9531 9.64453C18.5156 9.32161 18.181 8.85156 17.9492 8.23437C17.7174 7.61719 17.6016 6.8737 17.6016 6.00391C17.6016 5.13672 17.7174 4.39583 17.9492 3.78125C18.1836 3.16667 18.5195 2.69792 18.957 2.375C19.3971 2.05208 19.9232 1.89062 20.5352 1.89062C21.1471 1.89062 21.6719 2.05339 22.1094 2.37891C22.5469 2.70182 22.8815 3.17057 23.1133 3.78516C23.3477 4.39714 23.4648 5.13672 23.4648 6.00391C23.4648 6.8763 23.349 7.62109 23.1172 8.23828C22.8854 8.85286 22.5508 9.32292 22.1133 9.64844C21.6758 9.97135 21.1497 10.1328 20.5352 10.1328ZM20.5352 9.08984C21.0768 9.08984 21.5 8.82552 21.8047 8.29687C22.112 7.76823 22.2656 7.00391 22.2656 6.00391C22.2656 5.33984 22.1953 4.77865 22.0547 4.32031C21.9167 3.85937 21.7174 3.51042 21.457 3.27344C21.1992 3.03385 20.8919 2.91406 20.5352 2.91406C19.9961 2.91406 19.5729 3.17969 19.2656 3.71094C18.9583 4.24219 18.8034 5.00651 18.8008 6.00391C18.8008 6.67057 18.8698 7.23438 19.0078 7.69531C19.1484 8.15365 19.3477 8.5013 19.6055 8.73828C19.8633 8.97266 20.1732 9.08984 20.5352 9.08984ZM24.6826 8.4375V7.46094L28.1396 2H28.9092V3.4375H28.4209L25.9482 7.35156V7.41406H30.6865V8.4375H24.6826ZM28.4756 10V8.14062L28.4834 7.69531V2H29.6279V10H28.4756ZM32.0635 10V4H33.1846V4.97656H33.2588C33.3838 4.64583 33.5882 4.38802 33.8721 4.20313C34.1559 4.01563 34.4958 3.92188 34.8916 3.92188C35.2926 3.92188 35.6286 4.01563 35.8994 4.20313C36.1729 4.39062 36.3747 4.64844 36.5049 4.97656H36.5674C36.7106 4.65625 36.9385 4.40104 37.251 4.21094C37.5635 4.01823 37.9359 3.92188 38.3682 3.92188C38.9124 3.92188 39.3564 4.09245 39.7002 4.43359C40.0465 4.77474 40.2197 5.28906 40.2197 5.97656V10H39.0518V6.08594C39.0518 5.67969 38.9411 5.38542 38.7197 5.20312C38.4984 5.02083 38.234 4.92969 37.9268 4.92969C37.5465 4.92969 37.251 5.04687 37.04 5.28125C36.8291 5.51302 36.7236 5.8112 36.7236 6.17578V10H35.5596V6.01172C35.5596 5.6862 35.458 5.42448 35.2549 5.22656C35.0518 5.02865 34.7874 4.92969 34.4619 4.92969C34.2406 4.92969 34.0361 4.98828 33.8486 5.10547C33.6637 5.22005 33.514 5.38021 33.3994 5.58594C33.2874 5.79167 33.2314 6.02995 33.2314 6.30078V10H32.0635Z" fill="#A0A2A0"/>
<rect id="Rectangle 73" x="49" y="222" width="688" height="1" fill="#0D0F0D" fill-opacity="0.08"/>
<rect id="Rectangle 74" x="49" y="168" width="688" height="1" fill="#0D0F0D" fill-opacity="0.08"/>
<rect id="Rectangle 75" x="49" y="114" width="688" height="1" fill="#0D0F0D" fill-opacity="0.08"/>
<rect id="Rectangle 76" x="49" y="6" width="688" height="1" fill="#0D0F0D" fill-opacity="0.08"/>
<rect id="Rectangle 77" x="49" y="60" width="688" height="1" fill="#0D0F0D" fill-opacity="0.08"/>
<g id="Frame 31">
<path id="Rectangle 93" d="M65 104H97V84C97 80.6863 94.3137 78 91 78H71C67.6863 78 65 80.6863 65 84V104Z" fill="#8ED081"/>
<rect id="Rectangle 92" x="65" y="104" width="32" height="41" fill="#17473C"/>
<path id="Rectangle 78" d="M65 145H97V217C97 220.314 94.3137 223 91 223H71C67.6863 223 65 220.314 65 217V145Z" fill="#C3BEF7"/>
</g>
<g id="Frame 32">
<path id="Rectangle 93_2" d="M113 141H145V107C145 103.686 142.314 101 139 101H119C115.686 101 113 103.686 113 107V141Z" fill="#8ED081"/>
<rect id="Rectangle 92_2" x="113" y="141" width="32" height="49" fill="#17473C"/>
<path id="Rectangle 78_2" d="M113 190H145V217C145 220.314 142.314 223 139 223H119C115.686 223 113 220.314 113 217V190Z" fill="#C3BEF7"/>
</g>
<g id="Frame 33">
<path id="Rectangle 93_3" d="M161 134H193V105C193 101.686 190.314 99 187 99H167C163.686 99 161 101.686 161 105V134Z" fill="#8ED081"/>
<rect id="Rectangle 92_3" x="161" y="134" width="32" height="54" fill="#17473C"/>
<path id="Rectangle 78_3" d="M161 188H193V217C193 220.314 190.314 223 187 223H167C163.686 223 161 220.314 161 217V188Z" fill="#C3BEF7"/>
</g>
<g id="Frame 34">
<path id="Rectangle 93_4" d="M209 113H241V83C241 79.6863 238.314 77 235 77H215C211.686 77 209 79.6863 209 83V113Z" fill="#8ED081"/>
<rect id="Rectangle 92_4" x="209" y="113" width="32" height="52" fill="#17473C"/>
<path id="Rectangle 78_4" d="M209 165H241V217C241 220.314 238.314 223 235 223H215C211.686 223 209 220.314 209 217V165Z" fill="#C3BEF7"/>
</g>
<g id="Frame 35">
<path id="Rectangle 93_5" d="M257 80H289V53C289 49.6863 286.314 47 283 47H263C259.686 47 257 49.6863 257 53V80Z" fill="#8ED081"/>
<rect id="Rectangle 92_5" x="257" y="80" width="32" height="65" fill="#17473C"/>
<path id="Rectangle 78_5" d="M257 145H289V217C289 220.314 286.314 223 283 223H263C259.686 223 257 220.314 257 217V145Z" fill="#C3BEF7"/>
</g>
<g id="Frame 36">
<path id="Rectangle 93_6" d="M305 52H337V17C337 13.6863 334.314 11 331 11H311C307.686 11 305 13.6863 305 17V52Z" fill="#8ED081"/>
<rect id="Rectangle 92_6" x="305" y="52" width="32" height="52" fill="#17473C"/>
<path id="Rectangle 78_6" d="M305 104H337V217C337 220.314 334.314 223 331 223H311C307.686 223 305 220.314 305 217V104Z" fill="#C3BEF7"/>
</g>
<g id="Frame 37">
<path id="Rectangle 93_7" d="M353 91H385V78C385 74.6863 382.314 72 379 72H359C355.686 72 353 74.6863 353 78V91Z" fill="#8ED081"/>
<rect id="Rectangle 92_7" x="353" y="91" width="32" height="67" fill="#17473C"/>
<path id="Rectangle 78_7" d="M353 158H385V217C385 220.314 382.314 223 379 223H359C355.686 223 353 220.314 353 217V158Z" fill="#C3BEF7"/>
</g>
<g id="Frame 38">
<path id="Rectangle 93_8" d="M401 36H433V23C433 19.6863 430.314 17 427 17H407C403.686 17 401 19.6863 401 23V36Z" fill="#8ED081"/>
<rect id="Rectangle 92_8" x="401" y="36" width="32" height="91" fill="#17473C"/>
<path id="Rectangle 78_8" d="M401 127H433V217C433 220.314 430.314 223 427 223H407C403.686 223 401 220.314 401 217V127Z" fill="#C3BEF7"/>
</g>
<g id="Frame 39">
<path id="Rectangle 93_9" d="M449 71H481V63C481 59.6863 478.314 57 475 57H455C451.686 57 449 59.6863 449 63V71Z" fill="#8ED081"/>
<rect id="Rectangle 92_9" x="449" y="71" width="32" height="98" fill="#17473C"/>
<path id="Rectangle 78_9" d="M449 169H481V217C481 220.314 478.314 223 475 223H455C451.686 223 449 220.314 449 217V169Z" fill="#C3BEF7"/>
</g>
<g id="Frame 40">
<path id="Rectangle 93_10" d="M497 60H529V55C529 51.6863 526.314 49 523 49H503C499.686 49 497 51.6863 497 55V60Z" fill="#8ED081"/>
<rect id="Rectangle 92_10" x="497" y="60" width="32" height="67" fill="#17473C"/>
<path id="Rectangle 78_10" d="M497 127H529V217C529 220.314 526.314 223 523 223H503C499.686 223 497 220.314 497 217V127Z" fill="#C3BEF7"/>
</g>
<g id="Frame 41">
<path id="Rectangle 93_11" d="M545 106H577V67C577 63.6863 574.314 61 571 61H551C547.686 61 545 63.6863 545 67V106Z" fill="#8ED081"/>
<rect id="Rectangle 92_11" x="545" y="106" width="32" height="64" fill="#17473C"/>
<path id="Rectangle 78_11" d="M545 170H577V217C577 220.314 574.314 223 571 223H551C547.686 223 545 220.314 545 217V170Z" fill="#C3BEF7"/>
</g>
<g id="Frame 42">
<path id="Rectangle 93_12" d="M593 153H625V127C625 123.686 622.314 121 619 121H599C595.686 121 593 123.686 593 127V153Z" fill="#8ED081"/>
<rect id="Rectangle 92_12" x="593" y="153" width="32" height="41" fill="#17473C"/>
<path id="Rectangle 78_12" d="M593 194H625V217C625 220.314 622.314 223 619 223H599C595.686 223 593 220.314 593 217V194Z" fill="#C3BEF7"/>
</g>
<g id="Frame 43">
<path id="Rectangle 93_13" d="M641 134H673V94C673 90.6863 670.314 88 667 88H647C643.686 88 641 90.6863 641 94V134Z" fill="#8ED081"/>
<rect id="Rectangle 92_13" x="641" y="134" width="32" height="65" fill="#17473C"/>
<path id="Rectangle 78_13" d="M641 199H673V217C673 220.314 670.314 223 667 223H647C643.686 223 641 220.314 641 217V199Z" fill="#C3BEF7"/>
</g>
<g id="Frame 44">
<path id="Rectangle 93_14" d="M689 101H721V75C721 71.6863 718.314 69 715 69H695C691.686 69 689 71.6863 689 75V101Z" fill="#8ED081"/>
<rect id="Rectangle 92_14" x="689" y="101" width="32" height="71" fill="#17473C"/>
<path id="Rectangle 78_14" d="M689 172H721V217C721 220.314 718.314 223 715 223H695C691.686 223 689 220.314 689 217V172Z" fill="#C3BEF7"/>
</g>
</g>
</svg>
